# MagicaVoxel @ Ephtracy

# group
o 

# material
mtllib kiem.mtl
usemtl palette

# normals
vn -1 0 0
vn 1 0 0
vn 0 0 1
vn 0 0 -1
vn 0 -1 0
vn 0 1 0

# texcoords
vt 0.00195313 0.5
vt 0.841797 0.5

# verts
v -1 1.2 0
v -1 1.2 -0.1
v -1 1.6 0
v -1 1.6 -0.1
v -0.9 1 0
v -0.9 1 -0.1
v -0.9 1.2 0
v -0.9 1.2 -0.1
v -0.9 1.6 0
v -0.9 1.6 -0.1
v -0.9 1.7 0
v -0.9 1.7 -0.1
v -0.8 0.9 0
v -0.8 0.9 -0.1
v -0.8 1 0
v -0.8 1 -0.1
v -0.8 1.7 0
v -0.8 1.7 -0.1
v -0.8 1.9 0
v -0.8 1.9 -0.1
v -0.7 0.8 0.1
v -0.7 0.8 -0.2
v -0.7 0.9 0.1
v -0.7 0.9 0
v -0.7 0.9 -0.1
v -0.7 0.9 -0.2
v -0.7 1.9 0
v -0.7 1.9 -0.1
v -0.7 2 0
v -0.7 2 -0.1
v -0.6 0.5 0
v -0.6 0.5 -0.1
v -0.6 0.6 0
v -0.6 0.6 -0.1
v -0.6 0.8 0
v -0.6 0.8 -0.1
v -0.7 1.2 0
v -0.7 1.2 -0.1
v -0.7 1.4 0
v -0.7 1.4 -0.1
v -0.6 1.1 0
v -0.6 1.1 -0.1
v -0.6 1.2 0
v -0.6 1.2 -0.1
v -0.6 1.4 0
v -0.6 1.4 -0.1
v -0.6 1.5 0
v -0.6 1.5 -0.1
v -0.6 1.8 0
v -0.6 1.8 -0.1
v -0.6 2 0
v -0.6 2 -0.1
v -0.5 0.5 0
v -0.5 0.5 -0.1
v -0.5 0.6 0
v -0.5 0.6 -0.1
v -0.5 0.8 0
v -0.5 0.8 -0.1
v -0.5 1 0
v -0.5 1 -0.1
v -0.5 1.1 0
v -0.5 1.1 -0.1
v -0.5 1.5 0
v -0.5 1.5 -0.1
v -0.5 1.6 0
v -0.5 1.6 -0.1
v -0.5 1.7 0
v -0.5 1.7 -0.1
v -0.5 1.8 0
v -0.5 1.8 -0.1
v -0.4 0.8 0.1
v -0.4 0.8 -0.2
v -0.4 0.9 0.1
v -0.4 0.9 0
v -0.4 0.9 -0.1
v -0.4 0.9 -0.2
v -0.4 1 0
v -0.4 1 -0.1
v -0.4 1.6 0
v -0.4 1.6 -0.1
v -0.4 1.7 0
v -0.4 1.7 -0.1
v -0.7 0.8 0.1
v -0.7 0.9 0.1
v -0.4 0.8 0.1
v -0.4 0.9 0.1
v -1 1.2 0
v -1 1.6 0
v -0.9 1 0
v -0.9 1.2 0
v -0.9 1.3 0
v -0.9 1.6 0
v -0.9 1.7 0
v -0.8 0.9 0
v -0.8 1 0
v -0.8 1.3 0
v -0.8 1.7 0
v -0.8 1.9 0
v -0.7 0.9 0
v -0.7 1 0
v -0.7 1.2 0
v -0.7 1.4 0
v -0.7 1.6 0
v -0.7 1.9 0
v -0.7 2 0
v -0.6 0.5 0
v -0.6 0.6 0
v -0.6 0.8 0
v -0.6 1.1 0
v -0.6 1.2 0
v -0.6 1.4 0
v -0.6 1.5 0
v -0.6 1.8 0
v -0.6 2 0
v -0.5 0.5 0
v -0.5 0.6 0
v -0.5 0.8 0
v -0.5 1 0
v -0.5 1.1 0
v -0.5 1.5 0
v -0.5 1.6 0
v -0.5 1.7 0
v -0.5 1.8 0
v -0.4 0.9 0
v -0.4 1 0
v -0.4 1.6 0
v -0.4 1.7 0
v -1 1.2 -0.1
v -1 1.6 -0.1
v -0.9 1 -0.1
v -0.9 1.2 -0.1
v -0.9 1.3 -0.1
v -0.9 1.6 -0.1
v -0.9 1.7 -0.1
v -0.8 0.9 -0.1
v -0.8 1 -0.1
v -0.8 1.3 -0.1
v -0.8 1.7 -0.1
v -0.8 1.9 -0.1
v -0.7 0.9 -0.1
v -0.7 1 -0.1
v -0.7 1.2 -0.1
v -0.7 1.4 -0.1
v -0.7 1.6 -0.1
v -0.7 1.9 -0.1
v -0.7 2 -0.1
v -0.6 0.5 -0.1
v -0.6 0.6 -0.1
v -0.6 0.8 -0.1
v -0.6 1.1 -0.1
v -0.6 1.2 -0.1
v -0.6 1.4 -0.1
v -0.6 1.5 -0.1
v -0.6 1.8 -0.1
v -0.6 2 -0.1
v -0.5 0.5 -0.1
v -0.5 0.6 -0.1
v -0.5 0.8 -0.1
v -0.5 1 -0.1
v -0.5 1.1 -0.1
v -0.5 1.5 -0.1
v -0.5 1.6 -0.1
v -0.5 1.7 -0.1
v -0.5 1.8 -0.1
v -0.4 0.9 -0.1
v -0.4 1 -0.1
v -0.4 1.6 -0.1
v -0.4 1.7 -0.1
v -0.7 0.8 -0.2
v -0.7 0.9 -0.2
v -0.4 0.8 -0.2
v -0.4 0.9 -0.2
v -0.6 0.5 0
v -0.5 0.5 0
v -0.6 0.5 -0.1
v -0.5 0.5 -0.1
v -0.7 0.8 0.1
v -0.4 0.8 0.1
v -0.6 0.8 0
v -0.5 0.8 0
v -0.6 0.8 -0.1
v -0.5 0.8 -0.1
v -0.7 0.8 -0.2
v -0.4 0.8 -0.2
v -0.8 0.9 0
v -0.7 0.9 0
v -0.8 0.9 -0.1
v -0.7 0.9 -0.1
v -0.9 1 0
v -0.8 1 0
v -0.9 1 -0.1
v -0.8 1 -0.1
v -1 1.2 0
v -0.9 1.2 0
v -1 1.2 -0.1
v -0.9 1.2 -0.1
v -0.7 1.4 0
v -0.6 1.4 0
v -0.7 1.4 -0.1
v -0.6 1.4 -0.1
v -0.6 1.5 0
v -0.5 1.5 0
v -0.6 1.5 -0.1
v -0.5 1.5 -0.1
v -0.5 1.6 0
v -0.4 1.6 0
v -0.5 1.6 -0.1
v -0.4 1.6 -0.1
v -0.7 0.9 0.1
v -0.4 0.9 0.1
v -0.7 0.9 0
v -0.4 0.9 0
v -0.7 0.9 -0.1
v -0.4 0.9 -0.1
v -0.7 0.9 -0.2
v -0.4 0.9 -0.2
v -0.5 1 0
v -0.4 1 0
v -0.5 1 -0.1
v -0.4 1 -0.1
v -0.6 1.1 0
v -0.5 1.1 0
v -0.6 1.1 -0.1
v -0.5 1.1 -0.1
v -0.7 1.2 0
v -0.6 1.2 0
v -0.7 1.2 -0.1
v -0.6 1.2 -0.1
v -1 1.6 0
v -0.9 1.6 0
v -1 1.6 -0.1
v -0.9 1.6 -0.1
v -0.9 1.7 0
v -0.8 1.7 0
v -0.5 1.7 0
v -0.4 1.7 0
v -0.9 1.7 -0.1
v -0.8 1.7 -0.1
v -0.5 1.7 -0.1
v -0.4 1.7 -0.1
v -0.6 1.8 0
v -0.5 1.8 0
v -0.6 1.8 -0.1
v -0.5 1.8 -0.1
v -0.8 1.9 0
v -0.7 1.9 0
v -0.8 1.9 -0.1
v -0.7 1.9 -0.1
v -0.7 2 0
v -0.6 2 0
v -0.7 2 -0.1
v -0.6 2 -0.1

# faces
f 3/2/1 2/2/1 1/2/1
f 4/2/1 2/2/1 3/2/1
f 7/2/1 6/2/1 5/2/1
f 8/2/1 6/2/1 7/2/1
f 11/2/1 10/2/1 9/2/1
f 12/2/1 10/2/1 11/2/1
f 15/2/1 14/2/1 13/2/1
f 16/2/1 14/2/1 15/2/1
f 19/2/1 18/2/1 17/2/1
f 20/2/1 18/2/1 19/2/1
f 23/2/1 22/2/1 21/2/1
f 24/2/1 22/2/1 23/2/1
f 25/2/1 22/2/1 24/2/1
f 26/2/1 22/2/1 25/2/1
f 29/1/1 28/1/1 27/1/1
f 30/1/1 28/1/1 29/1/1
f 33/2/1 32/2/1 31/2/1
f 34/2/1 32/2/1 33/2/1
f 35/1/1 34/1/1 33/1/1
f 36/1/1 34/1/1 35/1/1
f 37/1/2 38/1/2 39/1/2
f 39/1/2 38/1/2 40/1/2
f 41/1/2 42/1/2 43/1/2
f 43/1/2 42/1/2 44/1/2
f 45/1/2 46/1/2 47/1/2
f 47/1/2 46/1/2 48/1/2
f 49/1/2 50/1/2 51/1/2
f 51/1/2 50/1/2 52/1/2
f 53/2/2 54/2/2 55/2/2
f 55/2/2 54/2/2 56/2/2
f 55/1/2 56/1/2 57/1/2
f 57/1/2 56/1/2 58/1/2
f 59/1/2 60/1/2 61/1/2
f 61/1/2 60/1/2 62/1/2
f 63/1/2 64/1/2 65/1/2
f 65/1/2 64/1/2 66/1/2
f 67/1/2 68/1/2 69/1/2
f 69/1/2 68/1/2 70/1/2
f 71/2/2 72/2/2 73/2/2
f 73/2/2 72/2/2 74/2/2
f 74/2/2 72/2/2 75/2/2
f 75/2/2 72/2/2 76/2/2
f 74/1/2 75/1/2 77/1/2
f 77/1/2 75/1/2 78/1/2
f 79/1/2 80/1/2 81/1/2
f 81/1/2 80/1/2 82/1/2
f 85/2/3 84/2/3 83/2/3
f 86/2/3 84/2/3 85/2/3
f 90/2/3 88/2/3 87/2/3
f 91/2/3 88/2/3 90/2/3
f 92/2/3 88/2/3 91/2/3
f 95/2/3 90/2/3 89/2/3
f 95/2/3 91/2/3 90/2/3
f 96/1/3 92/1/3 91/1/3
f 96/2/3 91/2/3 95/2/3
f 97/2/3 93/2/3 92/2/3
f 99/2/3 95/2/3 94/2/3
f 100/1/3 96/1/3 95/1/3
f 100/2/3 95/2/3 99/2/3
f 101/1/3 96/1/3 100/1/3
f 102/1/3 92/1/3 96/1/3
f 102/1/3 96/1/3 101/1/3
f 103/2/3 98/2/3 97/2/3
f 103/1/3 92/1/3 102/1/3
f 103/2/3 97/2/3 92/2/3
f 104/2/3 98/2/3 103/2/3
f 109/1/3 101/1/3 100/1/3
f 109/1/3 100/1/3 99/1/3
f 110/1/3 101/1/3 109/1/3
f 111/1/3 105/1/3 104/1/3
f 111/1/3 103/1/3 102/1/3
f 111/1/3 104/1/3 103/1/3
f 112/1/3 105/1/3 111/1/3
f 113/1/3 105/1/3 112/1/3
f 114/1/3 105/1/3 113/1/3
f 115/2/3 107/2/3 106/2/3
f 116/1/3 108/1/3 107/1/3
f 116/2/3 107/2/3 115/2/3
f 117/1/3 108/1/3 116/1/3
f 118/1/3 109/1/3 99/1/3
f 119/1/3 109/1/3 118/1/3
f 120/1/3 113/1/3 112/1/3
f 121/1/3 113/1/3 120/1/3
f 122/1/3 113/1/3 121/1/3
f 123/1/3 113/1/3 122/1/3
f 124/1/3 118/1/3 99/1/3
f 125/1/3 118/1/3 124/1/3
f 126/1/3 122/1/3 121/1/3
f 127/1/3 122/1/3 126/1/3
f 128/2/4 129/2/4 131/2/4
f 131/2/4 129/2/4 132/2/4
f 132/2/4 129/2/4 133/2/4
f 130/2/4 131/2/4 136/2/4
f 131/2/4 132/2/4 136/2/4
f 132/1/4 133/1/4 137/1/4
f 136/2/4 132/2/4 137/2/4
f 133/2/4 134/2/4 138/2/4
f 135/2/4 136/2/4 140/2/4
f 136/1/4 137/1/4 141/1/4
f 140/2/4 136/2/4 141/2/4
f 141/1/4 137/1/4 142/1/4
f 137/1/4 133/1/4 143/1/4
f 142/1/4 137/1/4 143/1/4
f 138/2/4 139/2/4 144/2/4
f 143/1/4 133/1/4 144/1/4
f 133/2/4 138/2/4 144/2/4
f 144/2/4 139/2/4 145/2/4
f 141/1/4 142/1/4 150/1/4
f 140/1/4 141/1/4 150/1/4
f 150/1/4 142/1/4 151/1/4
f 145/1/4 146/1/4 152/1/4
f 143/1/4 144/1/4 152/1/4
f 144/1/4 145/1/4 152/1/4
f 152/1/4 146/1/4 153/1/4
f 153/1/4 146/1/4 154/1/4
f 154/1/4 146/1/4 155/1/4
f 147/2/4 148/2/4 156/2/4
f 148/1/4 149/1/4 157/1/4
f 156/2/4 148/2/4 157/2/4
f 157/1/4 149/1/4 158/1/4
f 140/1/4 150/1/4 159/1/4
f 159/1/4 150/1/4 160/1/4
f 153/1/4 154/1/4 161/1/4
f 161/1/4 154/1/4 162/1/4
f 162/1/4 154/1/4 163/1/4
f 163/1/4 154/1/4 164/1/4
f 140/1/4 159/1/4 165/1/4
f 165/1/4 159/1/4 166/1/4
f 162/1/4 163/1/4 167/1/4
f 167/1/4 163/1/4 168/1/4
f 169/2/4 170/2/4 171/2/4
f 171/2/4 170/2/4 172/2/4
f 175/2/5 174/2/5 173/2/5
f 176/2/5 174/2/5 175/2/5
f 179/2/5 178/2/5 177/2/5
f 180/2/5 178/2/5 179/2/5
f 181/2/5 179/2/5 177/2/5
f 182/2/5 178/2/5 180/2/5
f 183/2/5 181/2/5 177/2/5
f 183/2/5 182/2/5 181/2/5
f 184/2/5 178/2/5 182/2/5
f 184/2/5 182/2/5 183/2/5
f 187/2/5 186/2/5 185/2/5
f 188/2/5 186/2/5 187/2/5
f 191/2/5 190/2/5 189/2/5
f 192/2/5 190/2/5 191/2/5
f 195/2/5 194/2/5 193/2/5
f 196/2/5 194/2/5 195/2/5
f 199/1/5 198/1/5 197/1/5
f 200/1/5 198/1/5 199/1/5
f 203/1/5 202/1/5 201/1/5
f 204/1/5 202/1/5 203/1/5
f 207/1/5 206/1/5 205/1/5
f 208/1/5 206/1/5 207/1/5
f 209/2/6 210/2/6 211/2/6
f 211/2/6 210/2/6 212/2/6
f 213/2/6 214/2/6 215/2/6
f 215/2/6 214/2/6 216/2/6
f 217/1/6 218/1/6 219/1/6
f 219/1/6 218/1/6 220/1/6
f 221/1/6 222/1/6 223/1/6
f 223/1/6 222/1/6 224/1/6
f 225/1/6 226/1/6 227/1/6
f 227/1/6 226/1/6 228/1/6
f 229/2/6 230/2/6 231/2/6
f 231/2/6 230/2/6 232/2/6
f 233/2/6 234/2/6 237/2/6
f 237/2/6 234/2/6 238/2/6
f 235/1/6 236/1/6 239/1/6
f 239/1/6 236/1/6 240/1/6
f 241/1/6 242/1/6 243/1/6
f 243/1/6 242/1/6 244/1/6
f 245/2/6 246/2/6 247/2/6
f 247/2/6 246/2/6 248/2/6
f 249/1/6 250/1/6 251/1/6
f 251/1/6 250/1/6 252/1/6
